<svg xmlns="http://www.w3.org/2000/svg" xmlns:xlink="http://www.w3.org/1999/xlink" viewBox="0,0,256,256" width="50px" height="50px" fill-rule="nonzero"><g fill="#2dc57b" fill-rule="nonzero" stroke="none" stroke-width="1" stroke-linecap="butt" stroke-linejoin="miter" stroke-miterlimit="10" stroke-dasharray="" stroke-dashoffset="0" font-family="none" font-weight="none" font-size="none" text-anchor="none" style="mix-blend-mode: normal"><g transform="scale(5.12,5.12)"><path d="M25,2c-1.25,0 -2.31477,0.50476 -2.99805,1.27344c-0.68327,0.76868 -1.00195,1.75434 -1.00195,2.72656c0,0.28037 0.03378,0.56081 0.08789,0.83789l-11.03125,5.51563c-0.02158,-0.02562 -0.03623,-0.05492 -0.05859,-0.08008c-0.68327,-0.76868 -1.74805,-1.27344 -2.99805,-1.27344c-1.25,0 -2.31477,0.50476 -2.99805,1.27344c-0.68327,0.76868 -1.00195,1.75434 -1.00195,2.72656c0,0.97222 0.31868,1.95788 1.00195,2.72656c0.68327,0.76868 1.74805,1.27344 2.99805,1.27344c1.21957,0 2.25676,-0.48536 2.94141,-1.22266l10.87695,6.04297c0.10141,0.05933 0.21249,0.10032 0.32813,0.12109c-0.08769,0.34825 -0.14648,0.70263 -0.14648,1.05859c0,0.97222 0.31868,1.95788 1.00195,2.72656c0.48712,0.54801 1.21201,0.88185 2.01563,1.07422c-0.0125,0.06565 -0.01839,0.13239 -0.01758,0.19922v11.20313c-0.79604,0.19416 -1.51445,0.52627 -1.99805,1.07031c-0.02236,0.02516 -0.03701,0.05446 -0.05859,0.08008l-11.03125,-5.51562c0.05411,-0.27708 0.08789,-0.55752 0.08789,-0.83789c0,-0.97222 -0.31868,-1.95788 -1.00195,-2.72656c-0.68327,-0.76868 -1.74805,-1.27344 -2.99805,-1.27344c-1.25,0 -2.31477,0.50476 -2.99805,1.27344c-0.68327,0.76868 -1.00195,1.75434 -1.00195,2.72656c0,0.97222 0.31868,1.95788 1.00195,2.72656c0.68327,0.76868 1.74805,1.27344 2.99805,1.27344c1.25,0 2.31477,-0.50476 2.99805,-1.27344c0.02272,-0.02556 0.03668,-0.056 0.05859,-0.08203l11.03125,5.51758c-0.05411,0.27708 -0.08789,0.55752 -0.08789,0.83789c0,0.97222 0.31868,1.95788 1.00195,2.72656c0.68327,0.76868 1.74805,1.27344 2.99805,1.27344c1.25,0 2.31477,-0.50476 2.99805,-1.27344c0.68327,-0.76868 1.00195,-1.75434 1.00195,-2.72656c0,-0.28037 -0.03378,-0.56081 -0.08789,-0.83789l11.03125,-5.51562c0.02158,0.02562 0.03623,0.05492 0.05859,0.08008c0.68327,0.76868 1.74805,1.27344 2.99805,1.27344c1.25,0 2.31477,-0.50476 2.99805,-1.27344c0.68327,-0.76868 1.00195,-1.75434 1.00195,-2.72656c0,-0.97222 -0.31868,-1.95788 -1.00195,-2.72656c-0.68327,-0.76868 -1.74805,-1.27344 -2.99805,-1.27344c-1.25,0 -2.31477,0.50476 -2.99805,1.27344c-0.68327,0.76868 -1.00195,1.75434 -1.00195,2.72656c0,0.28037 0.03378,0.56081 0.08789,0.83789l-11.03125,5.51563c-0.02158,-0.02562 -0.03623,-0.05492 -0.05859,-0.08008c-0.4836,-0.54405 -1.20201,-0.87616 -1.99805,-1.07031v-11.20312c0.00081,-0.06683 -0.00508,-0.13357 -0.01758,-0.19922c0.80362,-0.19237 1.5285,-0.52621 2.01563,-1.07422c0.68327,-0.76868 1.00195,-1.75434 1.00195,-2.72656c0,-0.34796 -0.05688,-0.69431 -0.14062,-1.03516c0.08841,-0.02347 0.17319,-0.05896 0.25195,-0.10547l10.94727,-6.08008c0.68466,0.73676 1.72236,1.2207 2.94141,1.2207c1.25,0 2.31477,-0.50476 2.99805,-1.27344c0.68327,-0.76868 1.00195,-1.75434 1.00195,-2.72656c0,-0.97222 -0.31868,-1.95788 -1.00195,-2.72656c-0.68327,-0.76868 -1.74805,-1.27344 -2.99805,-1.27344c-1.25,0 -2.31477,0.50476 -2.99805,1.27344c-0.68327,0.76868 -1.00195,1.75434 -1.00195,2.72656c0,0.33793 0.05388,0.67436 0.13281,1.00586l-10.99219,6.10547c-0.06565,0.03472 -0.12723,0.07665 -0.18359,0.125c-0.68438,-0.74583 -1.72915,-1.23633 -2.95703,-1.23633c-1.2345,0 -2.28464,0.4954 -2.96875,1.24805c-0.07146,-0.07041 -0.1531,-0.12967 -0.24219,-0.17578l-10.92187,-6.06641c0.07893,-0.3315 0.13281,-0.66793 0.13281,-1.00586c0,-0.28037 -0.03378,-0.56081 -0.08789,-0.83789l11.03125,-5.51562c0.02158,0.02562 0.03623,0.05492 0.05859,0.08008c0.68327,0.76868 1.74805,1.27344 2.99805,1.27344c1.25,0 2.31477,-0.50476 2.99805,-1.27344c0.68327,-0.76868 1.00195,-1.75434 1.00195,-2.72656c0,-0.97222 -0.31868,-1.95788 -1.00195,-2.72656c-0.68327,-0.76868 -1.74805,-1.27344 -2.99805,-1.27344zM25,4c0.75,0 1.18523,0.24524 1.50195,0.60156c0.31673,0.35632 0.49805,0.87066 0.49805,1.39844c0,0.52778 -0.18132,1.04212 -0.49805,1.39844c-0.31673,0.35632 -0.75195,0.60156 -1.50195,0.60156c-0.75,0 -1.18523,-0.24524 -1.50195,-0.60156c-0.31673,-0.35632 -0.49805,-0.87066 -0.49805,-1.39844c0,-0.52778 0.18132,-1.04212 0.49805,-1.39844c0.31673,-0.35632 0.75195,-0.60156 1.50195,-0.60156zM7,13c0.75,0 1.18523,0.24524 1.50195,0.60156c0.31673,0.35632 0.49805,0.87066 0.49805,1.39844c0,0.52778 -0.18132,1.04212 -0.49805,1.39844c-0.31673,0.35632 -0.75195,0.60156 -1.50195,0.60156c-0.75,0 -1.18523,-0.24524 -1.50195,-0.60156c-0.31673,-0.35632 -0.49805,-0.87066 -0.49805,-1.39844c0,-0.52778 0.18132,-1.04212 0.49805,-1.39844c0.31673,-0.35632 0.75195,-0.60156 1.50195,-0.60156zM43,13c0.75,0 1.18523,0.24524 1.50195,0.60156c0.31673,0.35632 0.49805,0.87066 0.49805,1.39844c0,0.52778 -0.18132,1.04212 -0.49805,1.39844c-0.31673,0.35632 -0.75195,0.60156 -1.50195,0.60156c-0.75,0 -1.18523,-0.24524 -1.50195,-0.60156c-0.31673,-0.35632 -0.49805,-0.87066 -0.49805,-1.39844c0,-0.52778 0.18132,-1.04212 0.49805,-1.39844c0.31673,-0.35632 0.75195,-0.60156 1.50195,-0.60156zM25,23c0.75,0 1.18523,0.24524 1.50195,0.60156c0.31673,0.35632 0.49805,0.87066 0.49805,1.39844c0,0.52778 -0.18132,1.04212 -0.49805,1.39844c-0.31673,0.35632 -0.75195,0.60156 -1.50195,0.60156c-0.75,0 -1.18523,-0.24524 -1.50195,-0.60156c-0.31673,-0.35632 -0.49805,-0.87066 -0.49805,-1.39844c0,-0.52778 0.18132,-1.04212 0.49805,-1.39844c0.31673,-0.35632 0.75195,-0.60156 1.50195,-0.60156zM7,33c0.75,0 1.18523,0.24524 1.50195,0.60156c0.31673,0.35632 0.49805,0.87066 0.49805,1.39844c0,0.52778 -0.18132,1.04212 -0.49805,1.39844c-0.31673,0.35632 -0.75195,0.60156 -1.50195,0.60156c-0.75,0 -1.18523,-0.24524 -1.50195,-0.60156c-0.31673,-0.35632 -0.49805,-0.87066 -0.49805,-1.39844c0,-0.52778 0.18132,-1.04212 0.49805,-1.39844c0.31673,-0.35632 0.75195,-0.60156 1.50195,-0.60156zM43,33c0.75,0 1.18523,0.24524 1.50195,0.60156c0.31673,0.35632 0.49805,0.87066 0.49805,1.39844c0,0.52778 -0.18132,1.04212 -0.49805,1.39844c-0.31673,0.35632 -0.75195,0.60156 -1.50195,0.60156c-0.75,0 -1.18523,-0.24524 -1.50195,-0.60156c-0.31673,-0.35632 -0.49805,-0.87066 -0.49805,-1.39844c0,-0.52778 0.18132,-1.04212 0.49805,-1.39844c0.31673,-0.35632 0.75195,-0.60156 1.50195,-0.60156zM24.9707,42.01172c0.02016,0.00126 0.04035,0.00191 0.06055,0.00195c0.72132,0.01007 1.16065,0.23908 1.4707,0.58789c0.31672,0.35627 0.49805,0.87066 0.49805,1.39844c0,0.52778 -0.18132,1.04212 -0.49805,1.39844c-0.31673,0.35632 -0.75195,0.60156 -1.50195,0.60156c-0.75,0 -1.18523,-0.24524 -1.50195,-0.60156c-0.31673,-0.35632 -0.49805,-0.87066 -0.49805,-1.39844c0,-0.52778 0.18132,-1.04212 0.49805,-1.39844c0.31055,-0.34937 0.74922,-0.5805 1.47266,-0.58984z"></path></g></g></svg>